#!OML:ASF F:\VICON\USERDATA\INSTALL\rory3\rory3.ASF
:FULLY-SPECIFIED
:DEGREES
363
root 1.85963 15.9916 -5.07392 2.48869 -28.3368 -0.72966
lowerback -3.94549 1.53454 3.08961
upperback -0.687817 1.92751 -0.850236
thorax 1.63559 0.980331 -2.50264
lowerneck -11.7382 4.50779 -1.33531
upperneck 39.543 9.28812 -5.76319
head 16.4748 2.72572 -0.770028
rclavicle 2.70534e-014 1.59028e-015
rhumerus 45.0865 -13.5687 -53.0905
rradius 129.283
rwrist -59.1519
rhand -6.057 -43.8267
rfingers 7.12502
rthumb 19.7776 -72.8405
lclavicle 2.70534e-014 1.59028e-015
lhumerus 11.2216 -33.4707 37.1453
lradius 29.6964
lwrist 22.7137
lhand -16.4187 -24.2888
lfingers 7.12502
lthumb 9.79622 5.46336
rfemur -22.8339 -15.786 23.5706
rtibia 59.9983
rfoot -36.4704 -31.6334
rtoes 0.553617
lfemur -27.8698 -13.5469 5.37719
ltibia 16.579
lfoot 11.6397 14.1074
ltoes -12.9185
364
root 1.85107 15.9861 -5.08433 2.33932 -28.3231 -0.710654
lowerback -3.85163 1.58133 3.13492
upperback -0.658136 1.99083 -0.849942
thorax 1.61935 1.01244 -2.52618
lowerneck -11.415 4.46664 -1.40369
upperneck 39.3804 9.23627 -5.83355
head 16.3075 2.70195 -0.803665
rclavicle 1.98847e-014 3.97569e-016
rhumerus 45.0865 -13.2934 -53.0982
rradius 129.284
rwrist -59.2114
rhand -6.11577 -43.8302
rfingers 7.12502
rthumb 19.7211 -72.8498
lclavicle 1.98847e-014 3.97569e-016
lhumerus 10.7984 -34.0591 37.6152
lradius 29.5977
lwrist 21.9355
lhand -17.8087 -24.112
lfingers 7.12502
lthumb 8.45492 5.69876
rfemur -22.7717 -15.8782 23.5394
rtibia 60.1699
rfoot -36.7385 -31.4786
rtoes 0.911043
lfemur -27.6692 -13.6854 5.39733
ltibia 16.4645
lfoot 11.6959 14.1759
ltoes -13.1026
365
root 1.84318 15.9734 -5.10777 2.17897 -28.1879 -0.58991
lowerback -3.5557 1.54843 2.96238
upperback -0.746749 1.96311 -0.811744
thorax 1.35365 0.992367 -2.40106
lowerneck -11.1889 4.45262 -1.29238
upperneck 39.5186 9.31955 -6.1789
head 16.3677 2.70463 -0.970097
rclavicle -9.34909e-016 -2.18663e-015
rhumerus 45.1424 -13.0515 -53.3524
rradius 129.354
rwrist -59.37
rhand -6.23609 -43.7007
rfingers 7.12502
rthumb 19.6054 -72.7321
lclavicle -9.34909e-016 -2.18663e-015
lhumerus 10.2294 -34.2848 38.3234
lradius 29.5129
lwrist 21.7773
lhand -18.1455 -24.1938
lfingers 7.12502
lthumb 8.12992 5.62981
rfemur -22.8485 -16.0008 23.5009
rtibia 60.3719
rfoot -36.7929 -31.6141
rtoes 0.966577
lfemur -27.6474 -13.6029 5.29412
ltibia 16.3718
lfoot 11.7675 13.8858
ltoes -13.1134
366
root 1.83471 15.9615 -5.12814 2.01 -28.0987 -0.3647
lowerback -3.46592 1.51376 2.80491
upperback -0.733072 1.92563 -0.837283
thorax 1.31079 0.972678 -2.34306
lowerneck -10.6796 4.56531 -1.47231
upperneck 39.4063 9.52036 -6.24001
head 16.1879 2.77304 -0.943396
rclavicle 4.87426e-014 5.96354e-016
rhumerus 45.3027 -12.7804 -53.6834
rradius 129.37
rwrist -59.3654
rhand -6.24379 -43.5664
rfingers 7.12502
rthumb 19.598 -72.5986
lclavicle 4.87426e-014 5.96354e-016
lhumerus 9.77766 -33.5544 39.1386
lradius 29.4793
lwrist 22.4389
lhand -16.1462 -24.591
lfingers 7.12502
lthumb 10.0591 5.14863
rfemur -22.9646 -16.0889 23.3773
rtibia 60.5749
rfoot -36.5604 -32.013
rtoes 0.26791
lfemur -27.6658 -13.5058 5.08101
ltibia 16.3597
lfoot 11.7599 13.6503
ltoes -13.0712
367
root 1.82587 15.9536 -5.13501 1.82661 -28.2125 -0.244372
lowerback -3.63821 1.59166 2.9391
upperback -0.554432 2.01982 -0.927248
thorax 1.60451 1.02742 -2.4984
lowerneck -11.1382 4.47901 -1.32135
upperneck 39.642 9.50425 -6.4907
head 16.4601 2.72948 -1.0756
rclavicle 2.32174e-014 -4.47266e-015
rhumerus 45.5003 -12.4497 -53.9479
rradius 129.303
rwrist -59.1306
rhand -5.71268 -44.0112
rfingers 7.12502
rthumb 20.1085 -72.9905
lclavicle 2.32174e-014 -4.47266e-015
lhumerus 9.4311 -33.6347 39.5697
lradius 29.4846
lwrist 22.3935
lhand -16.4143 -24.4291
lfingers 7.12502
lthumb 9.80043 5.32288
rfemur -22.9117 -16.0018 23.2722
rtibia 60.7366
rfoot -36.5101 -32.2176
rtoes -0.176511
lfemur -27.4774 -13.5036 4.95875
ltibia 16.3907
lfoot 11.705 13.6492
ltoes -13.2678
